<svg xmlns="http://www.w3.org/2000/svg" fill="none" viewBox="0 0 90 29"><g clip-path="url(#clip0)"><path fill="#262626" d="M2.3 24.8v.7a1 1 0 01-.4.8 1.1 1.1 0 01-.8.3A1.1 1.1 0 010 25.5V9.3a1.1 1.1 0 01.3-.9 1 1 0 01.8-.3 1.1 1.1 0 011.2 1.2v6a5.8 5.8 0 017.2-1 6 6 0 012.2 2.3 7 7 0 01.9 3.5 7 7 0 01-.9 3.5 6 6 0 01-5.1 3.1c-1.7 0-3.1-.6-4.3-1.9zm6.9-1.4c.8-.8 1.1-1.9 1.1-3.3s-.3-2.5-1.1-3.3a4 4 0 00-3-1.2c-.7 0-1.5.2-2.1.5-.7.4-1.3.8-1.8 1.4v5.2c.5.6 1 1 1.8 1.4.6.3 1.4.5 2.1.5a4 4 0 003-1.2zM17 25a6.7 6.7 0 01-1.7-4.8c0-1.2.2-2.3.7-3.3.4-1 1.1-1.8 2-2.4.9-.7 2-1 3.3-1 1.3 0 2.3.3 3.2.9 1 .5 1.6 1.3 2 2.3.5 1 .8 2 .8 3.1a1.1 1.1 0 01-.3.8c-.2.2-.5.4-.9.4h-8.5c.2 1.1.6 2 1.3 2.7.8.6 1.8 1 3.1 1a7.5 7.5 0 003.4-.8l.4-.1a1 1 0 011 .6v.4c0 .3-.2.6-.6.9a9 9 0 01-2 .8 9 9 0 01-2.4.3c-2 0-3.6-.6-4.7-1.8zm8-5.9a4 4 0 00-.6-2c-.4-.6-.8-1-1.4-1.3a3.8 3.8 0 00-3.4 0c-.5.3-1 .7-1.3 1.3-.4.5-.6 1.2-.7 2H25zM30.3 26.4a1 1 0 01-.3-.8V9.4a1.1 1.1 0 011.1-1.2 1.1 1.1 0 011.2 1.2v16.2a1 1 0 01-.3.8 1.1 1.1 0 01-.9.3 1 1 0 01-.8-.3zM35.4 26.4a1 1 0 01-.4-.8V9.4a1.1 1.1 0 01.4-.8 1 1 0 01.8-.4 1.2 1.2 0 011.1 1.2v10.2l6-5.5c.2-.2.5-.3.7-.3.4 0 .7.1.9.3l.2.8c0 .3-.1.6-.4.9L41.1 19l4.5 6c.2.2.3.4.3.7a1 1 0 01-.3.8l-.9.3c-.1 0-.3 0-.5-.2l-.4-.3-4.3-5.9-2.2 2v3.2a1 1 0 01-.3.8 1.1 1.1 0 01-.8.4 1 1 0 01-.8-.4zM66.4 26.4a1 1 0 01-.3-.8V15a1.1 1.1 0 01.3-.8 1 1 0 01.8-.3 1.2 1.2 0 011.1 1.1v1c.6-.6 1.3-1.2 2-1.6.8-.5 1.7-.7 2.7-.7.9 0 1.7.2 2.4.7.6.4 1.2 1 1.5 1.8.4.7.6 1.6.6 2.4v7.1a1 1 0 01-.4.8 1.1 1.1 0 01-.8.4 1.1 1.1 0 01-1.1-1.2v-6.8c0-2-1-3-2.8-3a4 4 0 00-2.2.6c-.7.5-1.3 1-1.9 1.7v7.5a1 1 0 01-.3.8 1.1 1.1 0 01-.8.4 1 1 0 01-.8-.4zM80.6 25.6a1 1 0 01-.4-.8 1 1 0 01.6-1h.8a7.4 7.4 0 003.4.7c1.9.1 2.8-.5 2.8-1.6 0-.4-.2-.7-.6-1a13 13 0 00-2.1-.6l-2.5-.7c-.6-.3-1.2-.7-1.6-1.2-.5-.5-.7-1.1-.7-2 0-1.1.4-2 1.3-2.8.8-.8 2-1.1 3.6-1.1 1.2 0 2.4.2 3.6.6.2 0 .4.2.5.4a1 1 0 01.2 1l-.3.3a1 1 0 01-.7.3l-.3-.1c-1-.3-1.9-.4-2.9-.4a4 4 0 00-2 .4c-.6.4-.8.8-.8 1.3s.2.9.7 1.1c.4.2 1.2.5 2.2.7l2.4.7a4 4 0 011.5 1.2c.5.5.7 1.2.7 2 0 1.1-.4 2-1.3 2.7-.8.7-2 1-3.5 1-1.7 0-3.2-.3-4.6-1z"/><path fill="#FF5F21" d="M50.6 25c-2.4-2.1-4-5.6-3.8-8.6a7 7 0 013.4-6c3-2 7-1.8 9.5-.6 2.8 1.4 4 3.2 3.8 5-.3 2.2-3.6 1.5-5.2 4.8-1.3 2.8 1.4 6.9-.4 7.8-1.7 1-4.4.3-7.3-2.3z"/><path fill="#262626" d="M53.2 26.2a12 12 0 01-4.4-8.2c-.1-2.6.5-4.4 2.7-6.3a9.3 9.3 0 018.9-1.6c2.8 1 4 2.8 4 4.7 0 2-3.2 1.7-4.4 5.2-1 2.9 2 6.7.4 7.8-1.6 1-4.2.7-7.2-1.6zM56.6 8a4 4 0 100-8 4 4 0 000 8z"/></g><defs><clipPath id="clip0"><path fill="#fff" d="M0 0h90v28.4H0z"/></clipPath></defs></svg>