<svg width="40" height="40" fill="none">
  <circle r="20" fill="#F6F6F6" transform="matrix(-1 0 0 1 20 20)"/>
  <path fill="#FF5F21" d="M25.03 21.76c-.54-.5-1.21-.5-1.75 0l-1.21 1.15c-.11.1-.2.12-.34.05-.26-.13-.54-.24-.8-.39a12.4 12.4 0 01-3.05-2.61 6.75 6.75 0 01-1.1-1.65c-.05-.12-.04-.2.07-.3l1.2-1.13c.57-.53.57-1.15 0-1.68l-.95-.9-.99-.93c-.54-.5-1.21-.5-1.74 0-.42.38-.8.77-1.23 1.15-.38.34-.58.76-.62 1.26-.07.8.14 1.56.44 2.3.6 1.52 1.52 2.88 2.63 4.12a16.2 16.2 0 005.4 3.98c.95.43 1.93.76 3 .81.73.04 1.37-.13 1.88-.67.35-.37.74-.7 1.11-1.05.55-.52.55-1.16 0-1.67-.64-.62-1.3-1.23-1.95-1.84z"/>
</svg>
