<svg width="40" height="40" viewBox="0 0 40 40" fill="none" xmlns="http://www.w3.org/2000/svg">
<circle r="20" transform="matrix(-1 0 0 1 20 20)" fill="#F6F6F6"/>
<path d="M25.0271 21.758C24.4891 21.2585 23.8174 21.2585 23.2828 21.758C22.875 22.1383 22.4672 22.5186 22.0662 22.9053C21.9566 23.0116 21.864 23.0342 21.7304 22.9633C21.4665 22.8279 21.1855 22.7184 20.9319 22.5701C19.7496 21.8708 18.7592 20.9717 17.8819 19.9598C17.4467 19.457 17.0595 18.9188 16.7887 18.313C16.7339 18.1905 16.7442 18.1099 16.8504 18.01C17.2582 17.6394 17.6557 17.2592 18.0567 16.8789C18.6153 16.3504 18.6153 15.7316 18.0533 15.1999C17.7346 14.8969 17.4159 14.6005 17.0972 14.2975C16.7682 13.9882 16.4426 13.6756 16.1102 13.3694C15.5722 12.8763 14.9005 12.8763 14.3659 13.3726C13.9547 13.7529 13.5606 14.1428 13.1425 14.5167C12.7552 14.8615 12.5599 15.2837 12.5188 15.7767C12.4537 16.5792 12.6627 17.3365 12.9574 18.0745C13.5606 19.602 14.479 20.9588 15.5927 22.2027C17.0972 23.885 18.8929 25.2159 20.9936 26.1763C21.9394 26.6081 22.9195 26.94 23.9853 26.9948C24.7187 27.0335 25.3561 26.8595 25.8667 26.3213C26.2162 25.9539 26.6103 25.6188 26.9804 25.2675C27.5287 24.7454 27.5322 24.1138 26.9873 23.5981C26.3362 22.9826 25.6816 22.3703 25.0271 21.758Z" fill="#FF5F21"/>
</svg>
